<?xml version="1.0" encoding="UTF-8"?>
<svg xmlns="http://www.w3.org/2000/svg" xmlns:xlink="http://www.w3.org/1999/xlink" width="900pt" height="899pt" viewBox="0 0 900 899" version="1.1">
<defs>
<clipPath id="clip1">
  <path d="M 428.390625 394.199219 L 616.757812 394.199219 L 616.757812 415.300781 L 428.390625 415.300781 Z M 428.390625 394.199219 "/>
</clipPath>
<clipPath id="clip2">
  <path d="M 613.035156 492.382812 C 629.484375 410.339844 584.207031 399.117188 556.265625 394.488281 L 522.46875 434.707031 L 490.265625 394.234375 C 461.875 398.589844 414.035156 408.644531 432.714844 492.382812 L 613.035156 492.382812 "/>
</clipPath>
<clipPath id="clip3">
  <path d="M 428.390625 407 L 616.757812 407 L 616.757812 434.175781 L 428.390625 434.175781 Z M 428.390625 407 "/>
</clipPath>
<clipPath id="clip4">
  <path d="M 613.035156 492.382812 C 629.484375 410.339844 584.207031 399.117188 556.265625 394.488281 L 522.46875 434.707031 L 490.265625 394.234375 C 461.875 398.589844 414.035156 408.644531 432.714844 492.382812 L 613.035156 492.382812 "/>
</clipPath>
<clipPath id="clip5">
  <path d="M 428.390625 424.269531 L 616.757812 424.269531 L 616.757812 453.652344 L 428.390625 453.652344 Z M 428.390625 424.269531 "/>
</clipPath>
<clipPath id="clip6">
  <path d="M 613.035156 492.382812 C 629.484375 410.339844 584.207031 399.117188 556.265625 394.488281 L 522.46875 434.707031 L 490.265625 394.234375 C 461.875 398.589844 414.035156 408.644531 432.714844 492.382812 L 613.035156 492.382812 "/>
</clipPath>
<clipPath id="clip7">
  <path d="M 428.390625 442.417969 L 616.757812 442.417969 L 616.757812 472.664062 L 428.390625 472.664062 Z M 428.390625 442.417969 "/>
</clipPath>
<clipPath id="clip8">
  <path d="M 613.035156 492.382812 C 629.484375 410.339844 584.207031 399.117188 556.265625 394.488281 L 522.46875 434.707031 L 490.265625 394.234375 C 461.875 398.589844 414.035156 408.644531 432.714844 492.382812 L 613.035156 492.382812 "/>
</clipPath>
<clipPath id="clip9">
  <path d="M 428.390625 460.566406 L 616.757812 460.566406 L 616.757812 491.679688 L 428.390625 491.679688 Z M 428.390625 460.566406 "/>
</clipPath>
<clipPath id="clip10">
  <path d="M 613.035156 492.382812 C 629.484375 410.339844 584.207031 399.117188 556.265625 394.488281 L 522.46875 434.707031 L 490.265625 394.234375 C 461.875 398.589844 414.035156 408.644531 432.714844 492.382812 L 613.035156 492.382812 "/>
</clipPath>
<clipPath id="clip11">
  <path d="M 428.390625 478 L 616.757812 478 L 616.757812 492.542969 L 428.390625 492.542969 Z M 428.390625 478 "/>
</clipPath>
<clipPath id="clip12">
  <path d="M 613.035156 492.382812 C 629.484375 410.339844 584.207031 399.117188 556.265625 394.488281 L 522.46875 434.707031 L 490.265625 394.234375 C 461.875 398.589844 414.035156 408.644531 432.714844 492.382812 L 613.035156 492.382812 "/>
</clipPath>
</defs>
<g id="surface1">
<path style=" stroke:none;fill-rule:nonzero;fill:rgb(81.960784%,66.27451%,46.666667%);fill-opacity:1;" d="M 368.058594 372.105469 C 368.058594 372.105469 373.144531 386.871094 366.109375 394.648438 L 416.117188 394.648438 C 416.117188 394.648438 406.109375 385.878906 413.523438 372.105469 L 368.058594 372.105469 "/>
<path style=" stroke:none;fill-rule:nonzero;fill:rgb(91.372549%,73.72549%,52.156863%);fill-opacity:1;" d="M 442.417969 314.867188 C 441.921875 277.496094 419.859375 247.195312 392.039062 247.195312 C 364.21875 247.195312 341.664062 277.488281 341.664062 314.867188 C 341.664062 314.867188 339.46875 348.699219 369.597656 373.398438 C 369.597656 373.398438 392.023438 397.367188 416.578125 372.234375 C 416.578125 372.234375 442.910156 352.414062 442.417969 314.867188 "/>
<path style=" stroke:none;fill-rule:nonzero;fill:rgb(75.294118%,55.686275%,38.431373%);fill-opacity:1;" d="M 393.207031 341.800781 L 385.820312 335.210938 L 393.207031 312.542969 L 393.207031 341.800781 "/>
<path style=" stroke:none;fill-rule:nonzero;fill:rgb(75.294118%,55.686275%,38.431373%);fill-opacity:1;" d="M 397.96875 360.703125 C 396.035156 360.703125 393.949219 360.273438 392.257812 360.273438 C 390.476562 360.273438 388.476562 360.589844 386.539062 360.589844 C 385.46875 360.589844 384.417969 360.488281 383.433594 360.191406 C 381.390625 359.5625 379.804688 359.15625 379.804688 359.15625 C 379.804688 359.15625 382.082031 359.652344 384.347656 359.652344 C 386.601562 359.652344 388.601562 358.359375 392.257812 358.359375 C 395.914062 358.359375 397.734375 359.742188 400.050781 359.742188 C 402.1875 359.742188 404.339844 359.246094 404.664062 359.167969 C 404.363281 359.238281 402.503906 359.707031 400.332031 360.394531 C 399.601562 360.625 398.800781 360.703125 397.96875 360.703125 M 404.664062 359.167969 C 404.691406 359.160156 404.710938 359.15625 404.710938 359.15625 C 404.710938 359.15625 404.691406 359.160156 404.664062 359.167969 "/>
<path style=" stroke:none;fill-rule:nonzero;fill:rgb(13.72549%,12.156863%,12.54902%);fill-opacity:1;" d="M 366.308594 315.476562 C 366.652344 318.105469 369.0625 319.960938 371.6875 319.621094 C 374.320312 319.28125 376.175781 316.875 375.828125 314.242188 C 375.488281 311.609375 373.074219 309.761719 370.449219 310.101562 C 367.820312 310.4375 365.964844 312.847656 366.308594 315.476562 "/>
<path style=" stroke:none;fill-rule:nonzero;fill:rgb(13.72549%,12.156863%,12.54902%);fill-opacity:1;" d="M 417.664062 315.621094 C 417.183594 318.230469 414.679688 319.953125 412.070312 319.476562 C 409.46875 318.992188 407.738281 316.488281 408.222656 313.882812 C 408.695312 311.269531 411.203125 309.550781 413.808594 310.03125 C 416.417969 310.507812 418.144531 313.019531 417.664062 315.621094 "/>
<path style=" stroke:none;fill-rule:nonzero;fill:rgb(20.784314%,12.156863%,9.019608%);fill-opacity:1;" d="M 364.1875 294.554688 C 368.328125 293.378906 373.363281 293.765625 373.8125 294.199219 C 374.253906 294.628906 375.339844 297.546875 374.53125 297.902344 C 373.730469 298.265625 371.382812 296.46875 365.304688 297.570312 C 361.253906 298.3125 356.335938 301.804688 354.824219 303.363281 C 356.011719 300.097656 358.929688 296.03125 364.1875 294.554688 "/>
<path style=" stroke:none;fill-rule:nonzero;fill:rgb(20.784314%,12.156863%,9.019608%);fill-opacity:1;" d="M 418.425781 294.554688 C 414.277344 293.378906 409.242188 293.765625 408.796875 294.199219 C 408.351562 294.628906 407.269531 297.546875 408.070312 297.902344 C 408.875 298.265625 411.21875 296.46875 417.300781 297.570312 C 421.355469 298.3125 426.273438 301.804688 427.785156 303.363281 C 426.59375 300.097656 423.679688 296.03125 418.425781 294.554688 "/>
<path style=" stroke:none;fill-rule:nonzero;fill:rgb(100%,100%,100%);fill-opacity:1;" d="M 375.335938 312.289062 C 375.335938 313.488281 374.371094 314.453125 373.175781 314.453125 C 371.988281 314.453125 371.015625 313.488281 371.015625 312.289062 C 371.015625 311.101562 371.988281 310.132812 373.175781 310.132812 C 374.371094 310.132812 375.335938 311.101562 375.335938 312.289062 "/>
<path style=" stroke:none;fill-rule:nonzero;fill:rgb(100%,100%,100%);fill-opacity:1;" d="M 416.730469 311.683594 C 416.730469 312.878906 415.765625 313.847656 414.570312 313.847656 C 413.375 313.847656 412.410156 312.878906 412.410156 311.683594 C 412.410156 310.492188 413.375 309.527344 414.570312 309.527344 C 415.765625 309.527344 416.730469 310.492188 416.730469 311.683594 "/>
<path style=" stroke:none;fill-rule:nonzero;fill:rgb(20.784314%,12.156863%,9.019608%);fill-opacity:1;" d="M 348.574219 327.710938 C 348.574219 327.710938 336.226562 281.769531 371.792969 258.554688 C 371.792969 258.554688 392.023438 242.75 406.363281 270.90625 C 406.363281 270.90625 403.398438 265.816406 407.84375 257.492188 C 407.84375 257.492188 422.164062 267.441406 423.15625 287.207031 C 423.15625 287.207031 428.949219 268.804688 426.882812 266.246094 C 426.882812 266.246094 442.707031 301.28125 433.816406 327.46875 L 442.183594 323.019531 L 444.265625 308.703125 C 444.265625 308.703125 453.777344 250.648438 401.421875 233.359375 C 401.421875 233.359375 337.46875 222.667969 339.320312 294.207031 L 341.683594 318.777344 L 348.574219 327.710938 "/>
<path style=" stroke:none;fill-rule:nonzero;fill:rgb(91.372549%,73.72549%,52.156863%);fill-opacity:1;" d="M 439.832031 304.371094 C 439.832031 304.371094 450.230469 293.011719 449.980469 315.59375 C 449.980469 315.59375 448.699219 338.652344 439.832031 335.800781 "/>
<path style=" stroke:none;fill-rule:nonzero;fill:rgb(91.372549%,73.72549%,52.156863%);fill-opacity:1;" d="M 344.390625 304.371094 C 344.390625 304.371094 334 293.011719 334.246094 315.59375 C 334.246094 315.59375 335.527344 338.652344 344.390625 335.800781 "/>
<path style=" stroke:none;fill-rule:nonzero;fill:rgb(9.411765%,21.176471%,31.764706%);fill-opacity:1;" d="M 345.117188 288.097656 L 329.316406 257.519531 L 368.824219 226.9375 L 419.203125 226.9375 L 455.746094 258.617188 L 439.832031 294.207031 C 439.832031 294.207031 401.421875 253.152344 345.117188 288.097656 "/>
<path style=" stroke:none;fill-rule:nonzero;fill:rgb(4.313725%,10.588235%,15.686275%);fill-opacity:1;" d="M 439.832031 294.207031 C 386.851562 309.683594 344.058594 294.207031 344.058594 294.207031 L 344.390625 287.421875 C 344.390625 287.421875 365.183594 268.554688 391.113281 268.605469 C 391.113281 268.605469 416.117188 266.457031 442.421875 288.964844 L 439.832031 294.207031 "/>
<path style=" stroke:none;fill-rule:nonzero;fill:rgb(1.176471%,3.921569%,5.882353%);fill-opacity:1;" d="M 344.390625 292.789062 C 344.390625 292.789062 365.183594 273.917969 391.113281 273.976562 C 391.113281 273.976562 414.933594 271.941406 440.539062 292.773438 L 442.421875 288.964844 C 416.117188 266.457031 391.113281 268.605469 391.113281 268.605469 C 365.183594 268.554688 344.390625 287.421875 344.390625 287.421875 L 344.058594 294.207031 C 344.058594 294.207031 344.164062 294.246094 344.320312 294.296875 L 344.390625 292.789062 "/>
<path style=" stroke:none;fill-rule:nonzero;fill:rgb(81.960784%,66.27451%,46.666667%);fill-opacity:1;" d="M 390.832031 393.148438 C 384.824219 392.691406 279.671875 385.960938 287.828125 468.5 L 493.839844 468.5 C 501.996094 385.960938 396.84375 392.691406 390.832031 393.148438 "/>
<path style=" stroke:none;fill-rule:nonzero;fill:rgb(9.411765%,21.176471%,31.764706%);fill-opacity:1;" d="M 491.679688 504.066406 C 509.992188 412.714844 459.582031 400.222656 428.472656 395.0625 L 390.832031 439.851562 L 354.976562 394.78125 C 323.375 399.632812 270.105469 410.828125 290.90625 504.066406 L 491.679688 504.066406 "/>
<path style=" stroke:none;fill-rule:nonzero;fill:rgb(5.490196%,13.333333%,19.607843%);fill-opacity:1;" d="M 369.648438 386.203125 L 390.832031 411.195312 L 416.117188 386.203125 L 433.613281 396.015625 L 390.832031 439.851562 L 348.769531 395.875 L 369.648438 386.203125 "/>
<path style=" stroke:none;fill-rule:nonzero;fill:rgb(75.294118%,41.176471%,13.333333%);fill-opacity:1;" d="M 406.996094 235.875 L 406.597656 234.921875 L 400.410156 234.117188 L 400.332031 236.082031 C 400.269531 237.613281 399.929688 239.445312 398.632812 239.445312 C 398.492188 239.445312 398.386719 239.417969 398.378906 239.417969 L 398.179688 239.351562 L 398.132812 239.351562 C 397.917969 238.726562 397.941406 237.136719 398.199219 235.804688 L 398.621094 233.65625 L 386.871094 233.65625 L 387.292969 235.804688 C 387.546875 237.132812 387.574219 238.707031 387.359375 239.339844 L 387.140625 239.414062 C 387.140625 239.414062 387.023438 239.445312 386.851562 239.445312 C 385.554688 239.445312 385.214844 237.613281 385.15625 236.082031 L 385.078125 234.117188 L 378.894531 234.921875 L 378.488281 235.875 C 377.003906 239.421875 378.054688 245.039062 378.253906 246.011719 C 378.40625 247.3125 380.15625 259.109375 391.929688 265.089844 L 392.746094 265.507812 L 393.554688 265.089844 C 405.332031 259.109375 407.078125 247.3125 407.238281 246.011719 C 407.433594 245.039062 408.484375 239.421875 406.996094 235.875 "/>
<path style=" stroke:none;fill-rule:nonzero;fill:rgb(97.647059%,65.490196%,16.862745%);fill-opacity:1;" d="M 405.554688 235.296875 L 405.15625 234.339844 L 398.96875 233.535156 L 398.890625 235.503906 C 398.832031 237.035156 398.492188 238.863281 397.195312 238.863281 C 397.046875 238.863281 396.945312 238.835938 396.945312 238.835938 L 396.746094 238.773438 L 396.691406 238.773438 C 396.480469 238.152344 396.5 236.558594 396.761719 235.226562 L 397.183594 233.082031 L 385.429688 233.082031 L 385.851562 235.226562 C 386.105469 236.550781 386.128906 238.128906 385.921875 238.757812 L 385.703125 238.835938 C 385.703125 238.835938 385.582031 238.863281 385.417969 238.863281 C 384.121094 238.863281 383.773438 237.035156 383.714844 235.503906 L 383.632812 233.535156 L 377.453125 234.339844 L 377.054688 235.296875 C 375.566406 238.839844 376.613281 244.457031 376.808594 245.433594 C 376.972656 246.730469 378.71875 258.535156 390.492188 264.511719 L 391.304688 264.925781 L 392.121094 264.511719 C 403.894531 258.535156 405.636719 246.730469 405.796875 245.433594 C 405.992188 244.457031 407.039062 238.839844 405.554688 235.296875 "/>
<path style=" stroke:none;fill-rule:nonzero;fill:rgb(98.039216%,70.588235%,27.843137%);fill-opacity:1;" d="M 403.898438 236.09375 L 400.6875 235.683594 C 400.449219 241.859375 396.441406 240.679688 396.441406 240.679688 C 393.871094 240.679688 394.996094 234.988281 394.996094 234.988281 L 387.617188 234.988281 C 387.617188 234.988281 388.734375 240.679688 386.171875 240.679688 C 386.171875 240.679688 382.160156 241.859375 381.917969 235.683594 L 378.710938 236.09375 C 377.347656 239.363281 378.589844 245.257812 378.589844 245.257812 C 378.589844 245.257812 379.835938 257.195312 391.304688 263.019531 C 402.777344 257.195312 404.019531 245.257812 404.019531 245.257812 C 404.019531 245.257812 405.265625 239.363281 403.898438 236.09375 "/>
<path style=" stroke:none;fill-rule:nonzero;fill:rgb(75.294118%,41.176471%,13.333333%);fill-opacity:1;" d="M 448.585938 455.367188 L 448.1875 454.414062 L 442 453.613281 L 441.921875 455.578125 C 441.859375 457.109375 441.515625 458.933594 440.222656 458.933594 C 440.078125 458.933594 439.972656 458.917969 439.964844 458.917969 L 439.765625 458.84375 L 439.71875 458.84375 C 439.503906 458.226562 439.523438 456.632812 439.78125 455.304688 L 440.207031 453.15625 L 428.460938 453.15625 L 428.875 455.300781 C 429.132812 456.625 429.15625 458.203125 428.949219 458.832031 L 428.730469 458.910156 C 428.730469 458.910156 428.613281 458.933594 428.441406 458.933594 C 427.144531 458.933594 426.804688 457.109375 426.742188 455.578125 L 426.664062 453.613281 L 420.472656 454.414062 L 420.078125 455.371094 C 418.59375 458.917969 419.636719 464.535156 419.839844 465.507812 C 419.996094 466.808594 421.746094 478.605469 433.519531 484.585938 L 434.328125 485 L 435.140625 484.585938 C 446.914062 478.605469 448.664062 466.808594 448.824219 465.507812 C 449.019531 464.535156 450.070312 458.917969 448.585938 455.367188 "/>
<path style=" stroke:none;fill-rule:nonzero;fill:rgb(97.647059%,65.490196%,16.862745%);fill-opacity:1;" d="M 447.144531 454.792969 L 446.746094 453.839844 L 440.554688 453.035156 L 440.476562 455 C 440.421875 456.527344 440.078125 458.355469 438.78125 458.355469 C 438.636719 458.355469 438.535156 458.335938 438.523438 458.335938 L 438.332031 458.265625 L 438.277344 458.265625 C 438.066406 457.648438 438.085938 456.054688 438.347656 454.722656 L 438.773438 452.582031 L 427.019531 452.582031 L 427.4375 454.71875 C 427.691406 456.046875 427.71875 457.625 427.511719 458.253906 L 427.289062 458.328125 C 427.289062 458.328125 427.171875 458.355469 427.003906 458.355469 C 425.707031 458.355469 425.363281 456.527344 425.300781 455 L 425.226562 453.035156 L 419.039062 453.839844 L 418.640625 454.792969 C 417.152344 458.335938 418.199219 463.957031 418.398438 464.929688 C 418.554688 466.230469 420.304688 478.023438 432.078125 484.007812 L 432.890625 484.421875 L 433.707031 484.007812 C 445.480469 478.023438 447.226562 466.230469 447.382812 464.929688 C 447.578125 463.957031 448.628906 458.335938 447.144531 454.792969 "/>
<path style=" stroke:none;fill-rule:nonzero;fill:rgb(98.039216%,70.588235%,27.843137%);fill-opacity:1;" d="M 445.484375 455.59375 L 442.277344 455.183594 C 442.035156 461.351562 438.027344 460.175781 438.027344 460.175781 C 435.460938 460.175781 436.582031 454.484375 436.582031 454.484375 L 429.199219 454.484375 C 429.199219 454.484375 430.324219 460.175781 427.757812 460.175781 C 427.757812 460.175781 423.75 461.351562 423.507812 455.183594 L 420.296875 455.59375 C 418.933594 458.855469 420.179688 464.75 420.179688 464.75 C 420.179688 464.75 421.425781 476.683594 432.890625 482.515625 C 444.359375 476.683594 445.605469 464.75 445.605469 464.75 C 445.605469 464.75 446.851562 458.855469 445.484375 455.59375 "/>
<path style=" stroke:none;fill-rule:nonzero;fill:rgb(96.470588%,53.333333%,17.647059%);fill-opacity:1;" d="M 432.890625 461.628906 L 434.601562 465.511719 L 438.820312 465.050781 L 436.3125 468.476562 L 438.820312 471.898438 L 434.601562 471.445312 L 432.890625 475.328125 L 431.179688 471.445312 L 426.960938 471.898438 L 429.472656 468.476562 L 426.960938 465.050781 L 431.179688 465.511719 L 432.890625 461.628906 "/>
<path style=" stroke:none;fill-rule:nonzero;fill:rgb(5.490196%,13.333333%,19.607843%);fill-opacity:1;" d="M 398.335938 504.066406 L 382.039062 504.066406 L 382.039062 428.734375 L 398.335938 428.734375 L 398.335938 504.066406 "/>
<path style=" stroke:none;fill-rule:nonzero;fill:rgb(75.294118%,41.176471%,13.333333%);fill-opacity:1;" d="M 394.632812 445.097656 C 394.632812 447.488281 392.640625 449.425781 390.183594 449.425781 C 387.730469 449.425781 385.738281 447.488281 385.738281 445.097656 C 385.738281 442.710938 387.730469 440.773438 390.183594 440.773438 C 392.640625 440.773438 394.632812 442.710938 394.632812 445.097656 "/>
<path style=" stroke:none;fill-rule:nonzero;fill:rgb(97.647059%,65.490196%,16.862745%);fill-opacity:1;" d="M 395.277344 445.097656 C 395.277344 447.488281 393.285156 449.425781 390.832031 449.425781 C 388.378906 449.425781 386.390625 447.488281 386.390625 445.097656 C 386.390625 442.710938 388.378906 440.773438 390.832031 440.773438 C 393.285156 440.773438 395.277344 442.710938 395.277344 445.097656 "/>
<path style=" stroke:none;fill-rule:nonzero;fill:rgb(98.039216%,70.588235%,27.843137%);fill-opacity:1;" d="M 395.277344 445.097656 C 395.277344 446.824219 393.84375 448.222656 392.070312 448.222656 C 390.296875 448.222656 388.867188 446.824219 388.867188 445.097656 C 388.867188 443.375 390.296875 441.980469 392.070312 441.980469 C 393.84375 441.980469 395.277344 443.375 395.277344 445.097656 "/>
<path style=" stroke:none;fill-rule:nonzero;fill:rgb(75.294118%,41.176471%,13.333333%);fill-opacity:1;" d="M 394.304688 492.273438 C 394.304688 494.667969 392.320312 496.597656 389.863281 496.597656 C 387.410156 496.597656 385.417969 494.667969 385.417969 492.273438 C 385.417969 489.882812 387.410156 487.949219 389.863281 487.949219 C 392.320312 487.949219 394.304688 489.882812 394.304688 492.273438 "/>
<path style=" stroke:none;fill-rule:nonzero;fill:rgb(97.647059%,65.490196%,16.862745%);fill-opacity:1;" d="M 394.953125 492.273438 C 394.953125 494.667969 392.960938 496.597656 390.511719 496.597656 C 388.054688 496.597656 386.066406 494.667969 386.066406 492.273438 C 386.066406 489.882812 388.054688 487.949219 390.511719 487.949219 C 392.960938 487.949219 394.953125 489.882812 394.953125 492.273438 "/>
<path style=" stroke:none;fill-rule:nonzero;fill:rgb(98.039216%,70.588235%,27.843137%);fill-opacity:1;" d="M 394.953125 492.273438 C 394.953125 494 393.519531 495.398438 391.746094 495.398438 C 389.976562 495.398438 388.535156 494 388.535156 492.273438 C 388.535156 490.550781 389.976562 489.15625 391.746094 489.15625 C 393.519531 489.15625 394.953125 490.550781 394.953125 492.273438 "/>
<path style=" stroke:none;fill-rule:nonzero;fill:rgb(97.647059%,65.490196%,16.862745%);fill-opacity:1;" d="M 344.390625 249.582031 L 334.246094 258.308594 L 346.351562 281.425781 L 339.277344 258.796875 L 344.390625 249.582031 "/>
<path style=" stroke:none;fill-rule:nonzero;fill:rgb(97.647059%,65.490196%,16.862745%);fill-opacity:1;" d="M 440.8125 250.9375 L 450.960938 259.660156 L 438.851562 282.78125 L 445.925781 260.15625 L 440.8125 250.9375 "/>
<path style=" stroke:none;fill-rule:nonzero;fill:rgb(75.294118%,41.176471%,13.333333%);fill-opacity:1;" d="M 350.800781 286.984375 C 350.800781 288.171875 349.800781 289.144531 348.578125 289.144531 C 347.355469 289.144531 346.351562 288.171875 346.351562 286.984375 C 346.351562 285.785156 347.355469 284.820312 348.578125 284.820312 C 349.800781 284.820312 350.800781 285.785156 350.800781 286.984375 "/>
<path style=" stroke:none;fill-rule:nonzero;fill:rgb(97.647059%,65.490196%,16.862745%);fill-opacity:1;" d="M 351.125 286.984375 C 351.125 288.171875 350.125 289.144531 348.902344 289.144531 C 347.671875 289.144531 346.679688 288.171875 346.679688 286.984375 C 346.679688 285.785156 347.671875 284.820312 348.902344 284.820312 C 350.125 284.820312 351.125 285.785156 351.125 286.984375 "/>
<path style=" stroke:none;fill-rule:nonzero;fill:rgb(98.039216%,70.588235%,27.843137%);fill-opacity:1;" d="M 351.125 286.984375 C 351.125 287.84375 350.402344 288.535156 349.519531 288.535156 C 348.632812 288.535156 347.914062 287.84375 347.914062 286.984375 C 347.914062 286.117188 348.632812 285.417969 349.519531 285.417969 C 350.402344 285.417969 351.125 286.117188 351.125 286.984375 "/>
<path style=" stroke:none;fill-rule:nonzero;fill:rgb(75.294118%,41.176471%,13.333333%);fill-opacity:1;" d="M 438.054688 286.984375 C 438.054688 288.171875 437.058594 289.144531 435.835938 289.144531 C 434.609375 289.144531 433.613281 288.171875 433.613281 286.984375 C 433.613281 285.785156 434.609375 284.820312 435.835938 284.820312 C 437.058594 284.820312 438.054688 285.785156 438.054688 286.984375 "/>
<path style=" stroke:none;fill-rule:nonzero;fill:rgb(97.647059%,65.490196%,16.862745%);fill-opacity:1;" d="M 438.382812 286.984375 C 438.382812 288.171875 437.382812 289.144531 436.15625 289.144531 C 434.929688 289.144531 433.933594 288.171875 433.933594 286.984375 C 433.933594 285.785156 434.929688 284.820312 436.15625 284.820312 C 437.382812 284.820312 438.382812 285.785156 438.382812 286.984375 "/>
<path style=" stroke:none;fill-rule:nonzero;fill:rgb(98.039216%,70.588235%,27.843137%);fill-opacity:1;" d="M 438.382812 286.984375 C 438.382812 287.84375 437.660156 288.535156 436.773438 288.535156 C 435.890625 288.535156 435.171875 287.84375 435.171875 286.984375 C 435.171875 286.117188 435.890625 285.417969 436.773438 285.417969 C 437.660156 285.417969 438.382812 286.117188 438.382812 286.984375 "/>
<path style=" stroke:none;fill-rule:nonzero;fill:rgb(96.470588%,53.333333%,17.647059%);fill-opacity:1;" d="M 391.304688 242.734375 L 393.019531 246.617188 L 397.234375 246.160156 L 394.726562 249.582031 L 397.234375 253.007812 L 393.019531 252.546875 L 391.304688 256.429688 L 389.59375 252.546875 L 385.378906 253.007812 L 387.878906 249.582031 L 385.378906 246.160156 L 389.59375 246.617188 L 391.304688 242.734375 "/>
<path style=" stroke:none;fill-rule:nonzero;fill:rgb(81.960784%,66.27451%,46.666667%);fill-opacity:1;" d="M 502.007812 373.871094 C 502.007812 373.871094 506.582031 387.125 500.261719 394.113281 L 545.171875 394.113281 C 545.171875 394.113281 536.1875 386.238281 542.847656 373.871094 L 502.007812 373.871094 "/>
<path style=" stroke:none;fill-rule:nonzero;fill:rgb(91.372549%,73.72549%,52.156863%);fill-opacity:1;" d="M 568.792969 322.460938 C 568.351562 288.902344 548.535156 261.683594 523.546875 261.683594 C 498.566406 261.683594 478.304688 288.898438 478.304688 322.460938 C 478.304688 322.460938 476.332031 352.847656 503.386719 375.03125 C 503.386719 375.03125 523.535156 396.558594 545.585938 373.984375 C 545.585938 373.984375 569.234375 356.183594 568.792969 322.460938 "/>
<path style=" stroke:none;fill-rule:nonzero;fill:rgb(20.784314%,12.156863%,9.019608%);fill-opacity:1;" d="M 559.316406 293.582031 C 559.316406 293.582031 569.054688 310.269531 561.074219 333.777344 L 568.578125 329.789062 L 570.453125 316.925781 C 570.453125 316.925781 581.464844 261.683594 531.976562 249.261719 C 531.976562 249.261719 474.539062 239.652344 476.203125 303.90625 L 478.328125 325.976562 L 484.511719 334 C 484.511719 334 473.425781 292.738281 505.363281 271.890625 C 505.363281 271.890625 512.175781 286.753906 535.160156 280.753906 C 535.160156 280.753906 549.820312 276.757812 559.316406 293.582031 "/>
<path style=" stroke:none;fill-rule:nonzero;fill:rgb(91.372549%,73.72549%,52.156863%);fill-opacity:1;" d="M 566.472656 313.03125 C 566.472656 313.03125 575.808594 302.832031 575.589844 323.117188 C 575.589844 323.117188 574.433594 343.824219 566.472656 341.261719 "/>
<path style=" stroke:none;fill-rule:nonzero;fill:rgb(91.372549%,73.72549%,52.156863%);fill-opacity:1;" d="M 480.761719 313.03125 C 480.761719 313.03125 471.425781 302.832031 471.644531 323.117188 C 471.644531 323.117188 472.796875 343.824219 480.761719 341.261719 "/>
<path style=" stroke:none;fill-rule:nonzero;fill:rgb(81.960784%,66.27451%,46.666667%);fill-opacity:1;" d="M 522.46875 392.765625 C 517.070312 392.355469 422.628906 386.3125 429.957031 460.441406 L 614.972656 460.441406 C 622.300781 386.3125 527.863281 392.355469 522.46875 392.765625 "/>
<path style=" stroke:none;fill-rule:nonzero;fill:rgb(91.372549%,91.372549%,91.372549%);fill-opacity:1;" d="M 613.035156 492.382812 C 629.484375 410.339844 584.207031 399.117188 556.265625 394.488281 L 522.46875 434.707031 L 490.265625 394.234375 C 461.875 398.589844 414.035156 408.644531 432.714844 492.382812 L 613.035156 492.382812 "/>
<g clip-path="url(#clip1)" clip-rule="nonzero">
<g clip-path="url(#clip2)" clip-rule="nonzero">
<path style=" stroke:none;fill-rule:nonzero;fill:rgb(22.352941%,20.784314%,21.176471%);fill-opacity:1;" d="M 627.644531 396.894531 C 560.398438 421.109375 486.820312 421.109375 419.574219 396.894531 C 420.5 394.332031 421.425781 391.765625 422.347656 389.203125 C 487.800781 412.773438 559.425781 412.773438 624.875 389.203125 C 625.800781 391.765625 626.726562 394.332031 627.644531 396.894531 "/>
</g>
</g>
<g clip-path="url(#clip3)" clip-rule="nonzero">
<g clip-path="url(#clip4)" clip-rule="nonzero">
<path style=" stroke:none;fill-rule:nonzero;fill:rgb(22.352941%,20.784314%,21.176471%);fill-opacity:1;" d="M 634.082031 414.773438 C 562.679688 440.488281 484.546875 440.488281 413.140625 414.773438 C 414.066406 412.210938 414.984375 409.648438 415.910156 407.078125 C 485.523438 432.144531 561.699219 432.144531 631.316406 407.078125 C 632.234375 409.648438 633.160156 412.210938 634.082031 414.773438 "/>
</g>
</g>
<g clip-path="url(#clip5)" clip-rule="nonzero">
<g clip-path="url(#clip6)" clip-rule="nonzero">
<path style=" stroke:none;fill-rule:nonzero;fill:rgb(22.352941%,20.784314%,21.176471%);fill-opacity:1;" d="M 640.515625 432.648438 C 564.957031 459.859375 482.265625 459.859375 406.703125 432.648438 C 407.632812 430.089844 408.550781 427.523438 409.472656 424.957031 C 483.246094 451.527344 563.976562 451.527344 637.75 424.957031 C 638.667969 427.523438 639.59375 430.089844 640.515625 432.648438 "/>
</g>
</g>
<g clip-path="url(#clip7)" clip-rule="nonzero">
<g clip-path="url(#clip8)" clip-rule="nonzero">
<path style=" stroke:none;fill-rule:nonzero;fill:rgb(22.352941%,20.784314%,21.176471%);fill-opacity:1;" d="M 646.949219 450.535156 C 567.234375 479.238281 479.992188 479.238281 400.269531 450.535156 C 401.195312 447.964844 402.117188 445.398438 403.039062 442.832031 C 480.972656 470.898438 566.253906 470.898438 644.183594 442.832031 C 645.105469 445.398438 646.027344 447.964844 646.949219 450.535156 "/>
</g>
</g>
<g clip-path="url(#clip9)" clip-rule="nonzero">
<g clip-path="url(#clip10)" clip-rule="nonzero">
<path style=" stroke:none;fill-rule:nonzero;fill:rgb(22.352941%,20.784314%,21.176471%);fill-opacity:1;" d="M 653.386719 468.410156 C 569.507812 498.609375 477.71875 498.609375 393.84375 468.410156 C 394.761719 465.839844 395.679688 463.28125 396.609375 460.714844 C 478.695312 490.273438 568.527344 490.273438 650.621094 460.714844 C 651.539062 463.28125 652.464844 465.839844 653.386719 468.410156 "/>
</g>
</g>
<g clip-path="url(#clip11)" clip-rule="nonzero">
<g clip-path="url(#clip12)" clip-rule="nonzero">
<path style=" stroke:none;fill-rule:nonzero;fill:rgb(22.352941%,20.784314%,21.176471%);fill-opacity:1;" d="M 659.820312 486.289062 C 571.777344 517.988281 475.4375 517.988281 387.398438 486.289062 C 388.328125 483.71875 389.246094 481.15625 390.171875 478.589844 C 476.421875 509.648438 570.800781 509.648438 657.054688 478.589844 C 657.972656 481.15625 658.898438 483.71875 659.820312 486.289062 "/>
</g>
</g>
<path style=" stroke:none;fill-rule:nonzero;fill:rgb(20.784314%,12.156863%,9.019608%);fill-opacity:1;" d="M 484.511719 334 C 484.511719 334 489.554688 356.6875 506.183594 359.054688 C 506.183594 359.054688 515.222656 355.46875 523.609375 356.222656 C 523.609375 356.222656 537.324219 355.886719 543.15625 360.214844 C 543.15625 360.214844 558.640625 349.570312 561.074219 333.777344 L 566.472656 330.90625 C 566.472656 330.90625 558.65625 382.035156 522.714844 384.242188 C 522.714844 384.242188 490.980469 383.253906 480.761719 329.132812 L 484.511719 334 "/>
<path style=" stroke:none;fill-rule:nonzero;fill:rgb(91.372549%,73.72549%,52.156863%);fill-opacity:1;" d="M 524.003906 361.671875 C 524.003906 361.671875 518.882812 359.589844 512.84375 364.214844 C 512.84375 364.214844 521.574219 372.957031 535.160156 364.214844 C 535.160156 364.214844 532.328125 359.550781 524.003906 361.671875 "/>
<path style=" stroke:none;fill-rule:nonzero;fill:rgb(65.490196%,64.705882%,65.098039%);fill-opacity:1;" d="M 569.679688 464.847656 C 568.957031 465.730469 568.03125 465.757812 567.59375 464.9375 C 566.660156 463.167969 565.65625 461.484375 564.605469 459.886719 C 564.113281 459.140625 564.257812 457.789062 564.941406 456.847656 C 565.726562 455.765625 566.519531 454.683594 567.3125 453.601562 C 567.996094 452.660156 568.988281 452.515625 569.507812 453.300781 C 570.621094 454.984375 571.671875 456.761719 572.664062 458.613281 C 573.128906 459.480469 572.894531 460.921875 572.175781 461.796875 C 571.339844 462.8125 570.511719 463.832031 569.679688 464.847656 Z M 574.5 458.472656 C 573.082031 455.683594 571.53125 453.066406 569.84375 450.636719 C 569.0625 449.503906 567.59375 449.757812 566.613281 451.148438 C 565.472656 452.746094 564.335938 454.347656 563.199219 455.941406 C 562.214844 457.335938 562.03125 459.265625 562.757812 460.316406 C 564.316406 462.570312 565.753906 465 567.0625 467.59375 C 567.671875 468.792969 568.988281 468.792969 570.058594 467.53125 C 571.285156 466.074219 572.507812 464.621094 573.734375 463.164062 C 574.796875 461.902344 575.164062 459.78125 574.5 458.472656 "/>
<path style=" stroke:none;fill-rule:nonzero;fill:rgb(50.980392%,49.803922%,50.196078%);fill-opacity:1;" d="M 569.480469 465.300781 C 568.988281 464.3125 569.25 462.695312 570.074219 461.65625 C 570.90625 460.617188 572.003906 460.574219 572.515625 461.601562 C 573.597656 463.773438 574.585938 466.054688 575.492188 468.441406 C 575.917969 469.570312 575.539062 471.28125 574.667969 472.222656 C 573.796875 473.167969 572.777344 473.027344 572.363281 471.9375 C 571.488281 469.617188 570.527344 467.40625 569.480469 465.300781 "/>
<path style=" stroke:none;fill-rule:nonzero;fill:rgb(65.490196%,64.705882%,65.098039%);fill-opacity:1;" d="M 561.128906 451.984375 C 560.472656 452.957031 559.484375 453.226562 558.90625 452.609375 C 557.667969 451.285156 556.371094 450.035156 555.027344 448.878906 C 554.394531 448.34375 554.375 447.101562 554.988281 446.082031 C 555.683594 444.910156 556.386719 443.742188 557.09375 442.566406 C 557.703125 441.546875 558.746094 441.160156 559.410156 441.726562 C 560.824219 442.945312 562.191406 444.253906 563.503906 445.648438 C 564.113281 446.304688 564.0625 447.644531 563.40625 448.621094 C 562.648438 449.738281 561.886719 450.859375 561.128906 451.984375 Z M 565.453125 445.042969 C 563.5625 442.925781 561.550781 440.996094 559.421875 439.265625 C 558.421875 438.453125 556.886719 439.054688 556.015625 440.558594 C 555.003906 442.273438 553.996094 444 552.996094 445.722656 C 552.125 447.21875 552.1875 448.996094 553.097656 449.75 C 555.074219 451.363281 556.9375 453.144531 558.691406 455.113281 C 559.503906 456.027344 560.925781 455.675781 561.902344 454.277344 C 563.019531 452.65625 564.140625 451.035156 565.257812 449.417969 C 566.238281 448.015625 566.34375 446.03125 565.453125 445.042969 "/>
<path style=" stroke:none;fill-rule:nonzero;fill:rgb(50.980392%,49.803922%,50.196078%);fill-opacity:1;" d="M 560.980469 452.441406 C 560.320312 451.691406 560.382812 450.183594 561.128906 449.035156 C 561.878906 447.890625 563.058594 447.570312 563.746094 448.347656 C 565.195312 450 566.566406 451.761719 567.859375 453.640625 C 568.46875 454.527344 568.285156 456.140625 567.480469 457.214844 C 566.667969 458.289062 565.554688 458.433594 564.96875 457.574219 C 563.714844 455.753906 562.382812 454.042969 560.980469 452.441406 "/>
<path style=" stroke:none;fill-rule:nonzero;fill:rgb(65.490196%,64.705882%,65.098039%);fill-opacity:1;" d="M 550.25 442.710938 C 549.671875 443.753906 548.648438 444.246094 547.945312 443.84375 C 546.441406 442.972656 544.882812 442.1875 543.285156 441.496094 C 542.539062 441.171875 542.347656 440.066406 542.867188 439 C 543.46875 437.769531 544.0625 436.539062 544.664062 435.3125 C 545.183594 434.242188 546.253906 433.628906 547.039062 433.96875 C 548.726562 434.699219 550.363281 435.519531 551.949219 436.4375 C 552.695312 436.859375 552.816406 438.074219 552.234375 439.117188 C 551.578125 440.3125 550.914062 441.515625 550.25 442.710938 Z M 553.96875 435.386719 C 551.65625 433.980469 549.238281 432.765625 546.722656 431.753906 C 545.546875 431.289062 543.976562 432.21875 543.238281 433.785156 C 542.386719 435.585938 541.535156 437.382812 540.679688 439.1875 C 539.945312 440.746094 540.25 442.328125 541.328125 442.757812 C 543.664062 443.703125 545.90625 444.828125 548.050781 446.140625 C 549.039062 446.75 550.519531 446.074219 551.382812 444.570312 C 552.367188 442.828125 553.351562 441.09375 554.339844 439.355469 C 555.199219 437.855469 555.046875 436.050781 553.96875 435.386719 "/>
<path style=" stroke:none;fill-rule:nonzero;fill:rgb(50.980392%,49.803922%,50.196078%);fill-opacity:1;" d="M 550.148438 443.160156 C 549.34375 442.652344 549.203125 441.289062 549.855469 440.074219 C 550.507812 438.859375 551.734375 438.265625 552.570312 438.785156 C 554.34375 439.894531 556.050781 441.117188 557.6875 442.460938 C 558.457031 443.09375 558.484375 444.585938 557.753906 445.753906 C 557.023438 446.914062 555.855469 447.339844 555.109375 446.730469 C 553.523438 445.421875 551.867188 444.234375 550.148438 443.160156 "/>
<path style=" stroke:none;fill-rule:nonzero;fill:rgb(65.490196%,64.705882%,65.098039%);fill-opacity:1;" d="M 537.339844 437.191406 C 536.851562 438.265625 535.816406 438.972656 535.007812 438.785156 C 533.273438 438.398438 531.496094 438.09375 529.683594 437.886719 C 528.835938 437.785156 528.480469 436.84375 528.890625 435.753906 C 529.378906 434.503906 529.855469 433.246094 530.335938 431.988281 C 530.75 430.90625 531.816406 430.082031 532.710938 430.179688 C 534.625 430.402344 536.492188 430.714844 538.324219 431.132812 C 539.179688 431.320312 539.472656 432.375 538.992188 433.457031 C 538.441406 434.699219 537.890625 435.945312 537.339844 437.191406 Z M 540.34375 429.679688 C 537.675781 429.003906 534.914062 428.542969 532.066406 428.285156 C 530.742188 428.167969 529.175781 429.40625 528.59375 430.992188 C 527.917969 432.824219 527.238281 434.65625 526.566406 436.484375 C 525.984375 438.070312 526.527344 439.402344 527.75 439.515625 C 530.390625 439.757812 532.949219 440.195312 535.425781 440.820312 C 536.574219 441.113281 538.070312 440.128906 538.792969 438.558594 C 539.621094 436.753906 540.449219 434.945312 541.277344 433.136719 C 541.996094 431.570312 541.597656 430 540.34375 429.679688 "/>
<path style=" stroke:none;fill-rule:nonzero;fill:rgb(50.980392%,49.803922%,50.196078%);fill-opacity:1;" d="M 537.28125 437.613281 C 536.351562 437.367188 536.019531 436.179688 536.558594 434.925781 C 537.101562 433.667969 538.332031 432.828125 539.304688 433.078125 C 541.355469 433.617188 543.351562 434.277344 545.28125 435.066406 C 546.203125 435.433594 546.421875 436.761719 545.796875 437.992188 C 545.171875 439.226562 543.96875 439.902344 543.085938 439.546875 C 541.207031 438.78125 539.273438 438.136719 537.28125 437.613281 "/>
<path style=" stroke:none;fill-rule:nonzero;fill:rgb(65.490196%,64.705882%,65.098039%);fill-opacity:1;" d="M 522.683594 435.570312 C 522.316406 436.65625 521.296875 437.550781 520.398438 437.601562 C 518.46875 437.703125 516.507812 437.902344 514.511719 438.195312 C 513.585938 438.328125 513.070312 437.589844 513.371094 436.507812 C 513.71875 435.265625 514.066406 434.015625 514.410156 432.773438 C 514.710938 431.691406 515.757812 430.671875 516.738281 430.527344 C 518.835938 430.214844 520.902344 430.007812 522.9375 429.902344 C 523.882812 429.84375 524.339844 430.714844 523.96875 431.804688 C 523.539062 433.058594 523.113281 434.3125 522.683594 435.570312 Z M 524.921875 428.078125 C 521.945312 428.167969 518.898438 428.476562 515.78125 429.003906 C 514.328125 429.253906 512.800781 430.78125 512.390625 432.351562 C 511.910156 434.160156 511.429688 435.96875 510.949219 437.777344 C 510.539062 439.347656 511.308594 440.382812 512.652344 440.167969 C 515.539062 439.675781 518.367188 439.394531 521.117188 439.3125 C 522.402344 439.269531 523.882812 438.007812 524.445312 436.414062 C 525.097656 434.582031 525.742188 432.753906 526.394531 430.921875 C 526.957031 429.335938 526.308594 428.035156 524.921875 428.078125 "/>
<path style=" stroke:none;fill-rule:nonzero;fill:rgb(50.980392%,49.803922%,50.196078%);fill-opacity:1;" d="M 522.691406 435.964844 C 521.652344 435.984375 521.132812 435.011719 521.542969 433.75 C 521.953125 432.488281 523.175781 431.414062 524.25 431.382812 C 526.542969 431.332031 528.78125 431.410156 530.96875 431.613281 C 532.003906 431.703125 532.417969 432.84375 531.917969 434.101562 C 531.410156 435.363281 530.203125 436.285156 529.210938 436.183594 C 527.082031 435.984375 524.90625 435.910156 522.691406 435.964844 "/>
<path style=" stroke:none;fill-rule:nonzero;fill:rgb(65.490196%,64.705882%,65.098039%);fill-opacity:1;" d="M 506.613281 438.007812 C 506.359375 439.078125 505.378906 440.152344 504.40625 440.445312 C 502.324219 441.058594 500.207031 441.777344 498.082031 442.589844 C 497.089844 442.972656 496.425781 442.457031 496.59375 441.414062 C 496.804688 440.214844 497.007812 439.011719 497.214844 437.816406 C 497.390625 436.773438 498.386719 435.578125 499.4375 435.171875 C 501.679688 434.3125 503.902344 433.554688 506.09375 432.90625 C 507.121094 432.601562 507.738281 433.242188 507.484375 434.316406 C 507.191406 435.542969 506.902344 436.777344 506.613281 438.007812 Z M 508 430.746094 C 504.785156 431.632812 501.503906 432.75 498.183594 434.089844 C 496.625 434.71875 495.164062 436.5 494.941406 438.007812 C 494.671875 439.746094 494.398438 441.484375 494.125 443.222656 C 493.902344 444.734375 494.890625 445.433594 496.320312 444.855469 C 499.40625 443.617188 502.445312 442.585938 505.425781 441.761719 C 506.816406 441.382812 508.242188 439.851562 508.640625 438.289062 C 509.09375 436.484375 509.542969 434.679688 509.992188 432.878906 C 510.386719 431.3125 509.5 430.324219 508 430.746094 "/>
<path style=" stroke:none;fill-rule:nonzero;fill:rgb(50.980392%,49.803922%,50.196078%);fill-opacity:1;" d="M 506.671875 438.359375 C 505.550781 438.660156 504.847656 437.941406 505.121094 436.710938 C 505.386719 435.46875 506.570312 434.179688 507.738281 433.863281 C 510.210938 433.195312 512.652344 432.667969 515.050781 432.269531 C 516.183594 432.074219 516.785156 432.976562 516.410156 434.234375 C 516.039062 435.496094 514.859375 436.632812 513.765625 436.8125 C 511.441406 437.199219 509.074219 437.714844 506.671875 438.359375 "/>
<path style=" stroke:none;fill-rule:nonzero;fill:rgb(65.490196%,64.705882%,65.098039%);fill-opacity:1;" d="M 489.414062 444.667969 C 489.289062 445.683594 488.359375 446.925781 487.335938 447.457031 C 485.132812 448.605469 482.921875 449.863281 480.683594 451.222656 C 479.640625 451.855469 478.835938 451.605469 478.878906 450.636719 C 478.933594 449.519531 478.988281 448.390625 479.042969 447.269531 C 479.089844 446.304688 480.019531 444.945312 481.117188 444.277344 C 483.46875 442.847656 485.804688 441.523438 488.121094 440.304688 C 489.207031 439.742188 489.976562 440.132812 489.847656 441.152344 C 489.703125 442.328125 489.558594 443.496094 489.414062 444.667969 Z M 489.910156 437.847656 C 486.507812 439.5625 483.058594 441.515625 479.582031 443.703125 C 477.953125 444.722656 476.597656 446.742188 476.5625 448.132812 C 476.507812 449.75 476.457031 451.363281 476.414062 452.976562 C 476.371094 454.375 477.5625 454.6875 479.066406 453.75 C 482.292969 451.726562 485.488281 449.921875 488.644531 448.328125 C 490.113281 447.589844 491.464844 445.832031 491.675781 444.332031 C 491.914062 442.605469 492.152344 440.882812 492.394531 439.160156 C 492.609375 437.660156 491.503906 437.039062 489.910156 437.847656 "/>
<path style=" stroke:none;fill-rule:nonzero;fill:rgb(50.980392%,49.803922%,50.196078%);fill-opacity:1;" d="M 489.53125 444.960938 C 488.335938 445.558594 487.464844 445.125 487.589844 443.949219 C 487.710938 442.78125 488.820312 441.296875 490.0625 440.683594 C 492.675781 439.375 495.273438 438.210938 497.835938 437.1875 C 499.046875 436.695312 499.832031 437.328125 499.601562 438.546875 C 499.367188 439.773438 498.238281 441.101562 497.070312 441.570312 C 494.582031 442.566406 492.070312 443.695312 489.53125 444.960938 "/>
<path style=" stroke:none;fill-rule:nonzero;fill:rgb(50.980392%,49.803922%,50.196078%);fill-opacity:1;" d="M 471.5625 455.925781 C 470.324219 456.820312 469.289062 456.710938 469.265625 455.648438 C 469.234375 454.574219 470.253906 452.921875 471.542969 452 C 474.253906 450.03125 476.960938 448.207031 479.640625 446.535156 C 480.910156 445.738281 481.863281 446.0625 481.78125 447.207031 C 481.699219 448.347656 480.648438 449.863281 479.425781 450.628906 C 476.820312 452.253906 474.207031 454.019531 471.5625 455.925781 "/>
<path style=" stroke:none;fill-rule:nonzero;fill:rgb(48.235294%,47.45098%,47.45098%);fill-opacity:1;" d="M 466.960938 520.539062 C 453.386719 520.539062 442.382812 509.527344 442.382812 495.957031 C 442.382812 482.375 453.386719 471.371094 466.960938 471.371094 C 480.535156 471.371094 491.542969 482.375 491.542969 495.957031 C 491.542969 509.527344 480.535156 520.539062 466.960938 520.539062 Z M 492.980469 474.117188 L 492.976562 474.117188 C 492.367188 473.375 491.71875 472.660156 491.042969 471.976562 C 488.953125 469.394531 485.871094 464.683594 485.570312 459.054688 L 485.570312 456.949219 C 485.570312 452.726562 482.144531 449.304688 477.917969 449.304688 L 454.550781 449.304688 C 450.332031 449.304688 446.90625 452.726562 446.90625 456.949219 L 446.90625 459.203125 C 446.90625 459.203125 447.535156 466.664062 441.519531 473.441406 L 441.523438 473.441406 C 436.308594 479.386719 433.148438 487.179688 433.148438 495.71875 C 433.148438 514.390625 448.285156 529.539062 466.960938 529.539062 C 485.636719 529.539062 500.773438 514.390625 500.773438 495.71875 C 500.773438 487.503906 497.847656 479.972656 492.980469 474.117188 "/>
<path style=" stroke:none;fill-rule:nonzero;fill:rgb(61.960784%,61.176471%,61.568627%);fill-opacity:1;" d="M 469.597656 520.539062 C 456.023438 520.539062 445.019531 509.527344 445.019531 495.957031 C 445.019531 482.375 456.023438 471.371094 469.597656 471.371094 C 483.175781 471.371094 494.179688 482.375 494.179688 495.957031 C 494.179688 509.527344 483.175781 520.539062 469.597656 520.539062 Z M 495.617188 474.117188 L 495.613281 474.117188 C 495.003906 473.375 494.355469 472.660156 493.679688 471.976562 C 491.589844 469.394531 488.503906 464.683594 488.210938 459.054688 L 488.210938 456.949219 C 488.210938 452.726562 484.78125 449.304688 480.5625 449.304688 L 457.191406 449.304688 C 452.964844 449.304688 449.542969 452.726562 449.542969 456.949219 L 449.542969 459.203125 C 449.542969 459.203125 450.171875 466.664062 444.160156 473.441406 C 438.945312 479.386719 435.789062 487.179688 435.789062 495.71875 C 435.789062 514.390625 450.925781 529.539062 469.597656 529.539062 C 488.273438 529.539062 503.414062 514.390625 503.414062 495.71875 C 503.414062 487.503906 500.488281 479.972656 495.617188 474.117188 "/>
<path style=" stroke:none;fill-rule:nonzero;fill:rgb(82.745098%,82.352941%,82.352941%);fill-opacity:1;" d="M 445.609375 490.585938 C 446.179688 488.019531 447.152344 485.605469 448.460938 483.414062 C 447.195312 484.96875 446.390625 486.652344 445.910156 488.828125 C 445.777344 489.40625 445.683594 489.984375 445.609375 490.585938 "/>
<path style=" stroke:none;fill-rule:nonzero;fill:rgb(70.588235%,70.196078%,70.196078%);fill-opacity:1;" d="M 449.542969 457.34375 L 449.542969 459.203125 C 449.542969 459.203125 450.171875 466.664062 444.160156 473.441406 C 443.808594 473.835938 443.46875 474.246094 443.140625 474.667969 C 442.914062 475.53125 442.707031 476.394531 442.511719 477.265625 C 446.746094 472.410156 452.871094 469.167969 459.257812 468.003906 C 460.0625 467.859375 460.878906 467.730469 461.707031 467.640625 C 461.707031 467.640625 473.917969 465.585938 462.132812 449.304688 L 456.734375 449.304688 C 456.734375 449.304688 450.097656 449.609375 449.542969 456.949219 "/>
<path style=" stroke:none;fill-rule:nonzero;fill:rgb(70.588235%,70.196078%,70.196078%);fill-opacity:1;" d="M 497.753906 492.621094 C 498.746094 500.34375 497.871094 508.292969 493.078125 514.503906 C 484.082031 526.140625 466.996094 530.730469 453.296875 525.347656 C 458.132812 528.015625 463.691406 529.539062 469.597656 529.539062 C 488.273438 529.539062 503.414062 514.390625 503.414062 495.71875 C 503.414062 487.503906 500.488281 479.972656 495.617188 474.117188 L 495.613281 474.117188 C 495.003906 473.375 494.355469 472.660156 493.679688 471.976562 C 491.589844 469.394531 488.503906 464.683594 488.210938 459.054688 L 488.210938 456.949219 C 488.210938 452.726562 484.78125 449.304688 480.5625 449.304688 L 466.320312 449.304688 C 466.320312 449.304688 483.269531 461.578125 492.378906 477.265625 C 492.378906 477.265625 497.15625 487.957031 497.753906 492.621094 "/>
<path style=" stroke:none;fill-rule:nonzero;fill:rgb(65.490196%,64.705882%,65.098039%);fill-opacity:1;" d="M 460.765625 459.835938 C 460.765625 462.140625 458.953125 464.011719 456.734375 464.011719 C 454.511719 464.011719 452.703125 462.140625 452.703125 459.835938 C 452.703125 457.53125 454.511719 455.65625 456.734375 455.65625 C 458.953125 455.65625 460.765625 457.53125 460.765625 459.835938 "/>
<path style=" stroke:none;fill-rule:nonzero;fill:rgb(82.745098%,82.352941%,82.352941%);fill-opacity:1;" d="M 459.363281 462.601562 C 459.453125 462.644531 459.542969 462.691406 459.628906 462.734375 C 460.332031 461.980469 460.765625 460.964844 460.765625 459.835938 C 460.765625 457.53125 458.953125 455.65625 456.734375 455.65625 C 456.566406 455.65625 456.40625 455.671875 456.246094 455.691406 C 455.152344 458.289062 457.082031 461.378906 459.363281 462.601562 "/>
<path style=" stroke:none;fill-rule:nonzero;fill:rgb(39.607843%,38.431373%,38.823529%);fill-opacity:1;" d="M 454.203125 459.835938 C 454.203125 457.792969 455.617188 456.097656 457.476562 455.730469 C 457.238281 455.6875 456.992188 455.65625 456.734375 455.65625 C 454.511719 455.65625 452.703125 457.53125 452.703125 459.835938 C 452.703125 462.140625 454.511719 464.011719 456.734375 464.011719 C 456.992188 464.011719 457.238281 463.984375 457.476562 463.9375 C 455.617188 463.570312 454.203125 461.875 454.203125 459.835938 "/>
<path style=" stroke:none;fill-rule:nonzero;fill:rgb(65.490196%,64.705882%,65.098039%);fill-opacity:1;" d="M 483.1875 459.835938 C 483.1875 462.140625 481.382812 464.011719 479.152344 464.011719 C 476.929688 464.011719 475.125 462.140625 475.125 459.835938 C 475.125 457.53125 476.929688 455.65625 479.152344 455.65625 C 481.382812 455.65625 483.1875 457.53125 483.1875 459.835938 "/>
<path style=" stroke:none;fill-rule:nonzero;fill:rgb(82.745098%,82.352941%,82.352941%);fill-opacity:1;" d="M 481.792969 462.601562 C 481.875 462.644531 481.960938 462.691406 482.054688 462.734375 C 482.753906 461.980469 483.1875 460.964844 483.1875 459.835938 C 483.1875 457.53125 481.382812 455.65625 479.152344 455.65625 C 478.992188 455.65625 478.832031 455.671875 478.667969 455.691406 C 477.578125 458.289062 479.503906 461.378906 481.792969 462.601562 "/>
<path style=" stroke:none;fill-rule:nonzero;fill:rgb(39.607843%,38.431373%,38.823529%);fill-opacity:1;" d="M 476.625 459.835938 C 476.625 457.792969 478.039062 456.097656 479.90625 455.730469 C 479.664062 455.6875 479.40625 455.65625 479.152344 455.65625 C 476.929688 455.65625 475.125 457.53125 475.125 459.835938 C 475.125 462.140625 476.929688 464.011719 479.152344 464.011719 C 479.40625 464.011719 479.664062 463.984375 479.90625 463.9375 C 478.039062 463.570312 476.625 461.875 476.625 459.835938 "/>
<path style=" stroke:none;fill-rule:nonzero;fill:rgb(87.45098%,67.45098%,50.196078%);fill-opacity:1;" d="M 468.449219 478.902344 C 467.636719 483.703125 469.757812 492.632812 474.324219 494.308594 L 502.113281 493.640625 C 505.851562 494.28125 515.675781 497.554688 517.441406 491.679688 C 518.683594 484.027344 510.8125 482.9375 506.246094 481.253906 L 476.074219 474.066406 C 471.382812 474.367188 469.628906 471.921875 468.816406 476.726562 L 468.449219 478.902344 "/>
<path style=" stroke:none;fill-rule:nonzero;fill:rgb(87.45098%,67.45098%,50.196078%);fill-opacity:1;" d="M 454.925781 474.117188 C 439.644531 480.496094 444.859375 497.675781 444.859375 497.675781 C 444.859375 497.675781 450.644531 509.671875 465.371094 523.519531 L 477.871094 534.457031 L 483.191406 538.214844 C 493.589844 542.199219 491.164062 534.367188 491.164062 534.367188 C 489.054688 530.621094 487.417969 528.929688 487.417969 528.929688 C 496.183594 540.460938 500.488281 535.265625 500.488281 535.265625 C 504.230469 532.730469 500.796875 528.53125 500.796875 528.53125 L 498.746094 525.195312 L 502.21875 527.152344 C 502.21875 527.152344 507.085938 532.808594 512.402344 527.902344 C 512.402344 527.902344 514.589844 525.105469 512.449219 521.8125 C 512.339844 522.121094 510.945312 519.179688 508.59375 516.578125 L 513.605469 518.734375 C 526.15625 521.988281 522.867188 508.527344 522.867188 508.527344 L 493.042969 479.742188 C 493.042969 479.742188 480.820312 468.847656 454.925781 474.113281 "/>
<path style=" stroke:none;fill-rule:nonzero;fill:rgb(83.921569%,62.745098%,47.843137%);fill-opacity:1;" d="M 490.746094 481.964844 L 520.570312 510.746094 C 520.570312 510.746094 521.773438 515.117188 520.558594 518 C 525.050781 516.457031 522.867188 508.535156 522.867188 508.535156 L 493.046875 479.75 C 493.046875 479.75 480.820312 468.855469 454.925781 474.117188 L 454.089844 476.074219 C 478.960938 471.523438 490.746094 481.964844 490.746094 481.964844 "/>
<path style=" stroke:none;fill-rule:nonzero;fill:rgb(48.235294%,47.45098%,47.45098%);fill-opacity:1;" d="M 555.53125 496.28125 C 555.53125 482.699219 566.535156 471.695312 580.113281 471.695312 C 593.6875 471.695312 604.691406 482.699219 604.691406 496.28125 C 604.691406 509.859375 593.6875 520.863281 580.113281 520.863281 C 566.535156 520.863281 555.53125 509.859375 555.53125 496.28125 Z M 546.296875 496.039062 C 546.296875 514.722656 561.433594 529.859375 580.113281 529.859375 C 598.785156 529.859375 613.925781 514.722656 613.925781 496.039062 C 613.925781 487.507812 610.761719 479.710938 605.546875 473.761719 L 605.550781 473.761719 C 599.535156 466.988281 600.164062 459.53125 600.164062 459.53125 L 600.164062 457.277344 C 600.164062 453.054688 596.742188 449.625 592.515625 449.625 L 569.148438 449.625 C 564.929688 449.625 561.503906 453.054688 561.503906 457.277344 L 561.503906 459.386719 C 561.203125 465.003906 558.121094 469.71875 556.027344 472.300781 C 555.351562 472.984375 554.707031 473.699219 554.09375 474.441406 L 554.089844 474.441406 C 549.226562 480.300781 546.296875 487.828125 546.296875 496.039062 "/>
<path style=" stroke:none;fill-rule:nonzero;fill:rgb(61.960784%,61.176471%,61.568627%);fill-opacity:1;" d="M 552.890625 496.28125 C 552.890625 482.699219 563.898438 471.695312 577.472656 471.695312 C 591.050781 471.695312 602.050781 482.699219 602.050781 496.28125 C 602.050781 509.859375 591.050781 520.863281 577.472656 520.863281 C 563.898438 520.863281 552.890625 509.859375 552.890625 496.28125 Z M 543.65625 496.039062 C 543.65625 514.722656 558.800781 529.859375 577.472656 529.859375 C 596.148438 529.859375 611.28125 514.722656 611.28125 496.039062 C 611.28125 487.507812 608.128906 479.710938 602.914062 473.761719 C 596.898438 466.988281 597.53125 459.53125 597.53125 459.53125 L 597.53125 457.277344 C 597.53125 453.054688 594.101562 449.625 589.882812 449.625 L 566.511719 449.625 C 562.289062 449.625 558.863281 453.054688 558.863281 457.277344 L 558.863281 459.386719 C 558.566406 465.003906 555.484375 469.71875 553.390625 472.300781 C 552.71875 472.984375 552.066406 473.699219 551.457031 474.441406 C 546.585938 480.300781 543.65625 487.828125 543.65625 496.039062 "/>
<path style=" stroke:none;fill-rule:nonzero;fill:rgb(82.745098%,82.352941%,82.352941%);fill-opacity:1;" d="M 601.460938 490.90625 C 600.890625 488.347656 599.921875 485.929688 598.613281 483.738281 C 599.871094 485.292969 600.679688 486.976562 601.160156 489.152344 C 601.292969 489.730469 601.390625 490.3125 601.460938 490.90625 "/>
<path style=" stroke:none;fill-rule:nonzero;fill:rgb(70.588235%,70.196078%,70.196078%);fill-opacity:1;" d="M 597.53125 457.667969 L 597.53125 459.53125 C 597.53125 459.53125 596.898438 466.988281 602.914062 473.761719 C 603.265625 474.160156 603.597656 474.578125 603.933594 474.992188 C 604.15625 475.855469 604.363281 476.722656 604.558594 477.589844 C 600.324219 472.742188 594.203125 469.496094 587.816406 468.332031 C 587.011719 468.183594 586.191406 468.054688 585.367188 467.96875 C 585.367188 467.96875 573.15625 465.910156 584.9375 449.625 L 590.34375 449.625 C 590.34375 449.625 596.972656 449.933594 597.53125 457.277344 "/>
<path style=" stroke:none;fill-rule:nonzero;fill:rgb(70.588235%,70.196078%,70.196078%);fill-opacity:1;" d="M 549.316406 492.941406 C 548.328125 500.667969 549.199219 508.617188 553.996094 514.828125 C 562.984375 526.46875 580.078125 531.050781 593.773438 525.679688 C 588.941406 528.34375 583.378906 529.859375 577.472656 529.859375 C 558.800781 529.859375 543.65625 514.722656 543.65625 496.039062 C 543.65625 487.828125 546.585938 480.300781 551.457031 474.441406 C 552.066406 473.699219 552.71875 472.984375 553.390625 472.300781 C 555.484375 469.71875 558.566406 465.003906 558.863281 459.386719 L 558.863281 457.277344 C 558.863281 453.054688 562.289062 449.625 566.511719 449.625 L 580.75 449.625 C 580.75 449.625 563.804688 461.902344 554.691406 477.589844 C 554.691406 477.589844 549.914062 488.289062 549.316406 492.941406 "/>
<path style=" stroke:none;fill-rule:nonzero;fill:rgb(65.490196%,64.705882%,65.098039%);fill-opacity:1;" d="M 586.308594 460.164062 C 586.308594 462.464844 588.117188 464.335938 590.34375 464.335938 C 592.558594 464.335938 594.371094 462.464844 594.371094 460.164062 C 594.371094 457.851562 592.558594 455.984375 590.34375 455.984375 C 588.117188 455.984375 586.308594 457.851562 586.308594 460.164062 "/>
<path style=" stroke:none;fill-rule:nonzero;fill:rgb(82.745098%,82.352941%,82.352941%);fill-opacity:1;" d="M 587.703125 462.925781 C 587.617188 462.96875 587.527344 463.011719 587.4375 463.058594 C 586.742188 462.308594 586.308594 461.289062 586.308594 460.164062 C 586.308594 457.851562 588.117188 455.984375 590.34375 455.984375 C 590.503906 455.984375 590.667969 456 590.828125 456.015625 C 591.921875 458.609375 589.992188 461.699219 587.703125 462.925781 "/>
<path style=" stroke:none;fill-rule:nonzero;fill:rgb(39.607843%,38.431373%,38.823529%);fill-opacity:1;" d="M 592.867188 460.164062 C 592.867188 458.121094 591.457031 456.421875 589.589844 456.058594 C 589.832031 456.011719 590.085938 455.984375 590.34375 455.984375 C 592.558594 455.984375 594.371094 457.851562 594.371094 460.164062 C 594.371094 462.464844 592.558594 464.335938 590.34375 464.335938 C 590.085938 464.335938 589.832031 464.308594 589.589844 464.261719 C 591.457031 463.898438 592.867188 462.203125 592.867188 460.164062 "/>
<path style=" stroke:none;fill-rule:nonzero;fill:rgb(65.490196%,64.705882%,65.098039%);fill-opacity:1;" d="M 563.886719 460.164062 C 563.886719 462.464844 565.6875 464.335938 567.917969 464.335938 C 570.144531 464.335938 571.949219 462.464844 571.949219 460.164062 C 571.949219 457.851562 570.144531 455.984375 567.917969 455.984375 C 565.6875 455.984375 563.886719 457.851562 563.886719 460.164062 "/>
<path style=" stroke:none;fill-rule:nonzero;fill:rgb(82.745098%,82.352941%,82.352941%);fill-opacity:1;" d="M 565.28125 462.925781 C 565.199219 462.96875 565.113281 463.011719 565.019531 463.058594 C 564.320312 462.308594 563.886719 461.289062 563.886719 460.164062 C 563.886719 457.851562 565.6875 455.984375 567.917969 455.984375 C 568.078125 455.984375 568.242188 456 568.398438 456.015625 C 569.492188 458.609375 567.566406 461.699219 565.28125 462.925781 "/>
<path style=" stroke:none;fill-rule:nonzero;fill:rgb(39.607843%,38.431373%,38.823529%);fill-opacity:1;" d="M 570.449219 460.164062 C 570.449219 458.121094 569.035156 456.421875 567.164062 456.058594 C 567.410156 456.011719 567.664062 455.984375 567.917969 455.984375 C 570.144531 455.984375 571.949219 457.851562 571.949219 460.164062 C 571.949219 462.464844 570.144531 464.335938 567.917969 464.335938 C 567.664062 464.335938 567.410156 464.308594 567.164062 464.261719 C 569.035156 463.898438 570.449219 462.203125 570.449219 460.164062 "/>
<path style=" stroke:none;fill-rule:nonzero;fill:rgb(87.45098%,67.45098%,50.196078%);fill-opacity:1;" d="M 578.621094 479.226562 C 579.4375 484.027344 577.308594 492.960938 572.746094 494.636719 L 544.960938 493.964844 C 541.222656 494.609375 531.390625 497.878906 529.632812 492.003906 C 528.386719 484.359375 536.261719 483.261719 540.828125 481.582031 L 571 474.390625 C 575.691406 474.695312 577.441406 472.25 578.25 477.0625 L 578.621094 479.226562 "/>
<path style=" stroke:none;fill-rule:nonzero;fill:rgb(87.45098%,67.45098%,50.196078%);fill-opacity:1;" d="M 592.148438 474.4375 C 566.253906 469.175781 554.027344 480.066406 554.027344 480.066406 L 524.207031 508.851562 C 524.207031 508.851562 520.914062 522.3125 533.46875 519.058594 L 538.476562 516.898438 C 536.128906 519.503906 534.730469 522.445312 534.617188 522.136719 C 532.480469 525.425781 534.671875 528.234375 534.671875 528.234375 C 539.988281 533.136719 544.851562 527.480469 544.851562 527.480469 L 548.328125 525.523438 L 546.269531 528.851562 C 546.269531 528.851562 542.839844 533.054688 546.582031 535.585938 C 546.582031 535.585938 550.890625 540.789062 559.652344 529.257812 C 559.652344 529.257812 558.019531 530.953125 555.90625 534.691406 C 555.90625 534.691406 553.480469 542.523438 563.878906 538.535156 L 569.199219 534.78125 L 581.703125 523.84375 C 596.429688 509.996094 602.214844 498 602.214844 498 C 602.214844 498 607.421875 480.824219 592.140625 474.441406 "/>
<path style=" stroke:none;fill-rule:nonzero;fill:rgb(83.921569%,62.745098%,47.843137%);fill-opacity:1;" d="M 556.324219 482.289062 L 526.503906 511.070312 C 526.503906 511.070312 525.296875 515.441406 526.515625 518.324219 C 522.019531 516.78125 524.207031 508.859375 524.207031 508.859375 L 554.023438 480.070312 C 554.023438 480.070312 566.25 469.179688 592.140625 474.441406 L 592.980469 476.398438 C 568.109375 471.847656 556.324219 482.289062 556.324219 482.289062 "/>
<path style=" stroke:none;fill-rule:nonzero;fill:rgb(75.294118%,55.686275%,38.431373%);fill-opacity:1;" d="M 524.476562 347.109375 L 517.65625 341.023438 L 524.476562 320.089844 L 524.476562 347.109375 "/>
<path style=" stroke:none;fill-rule:nonzero;fill:rgb(18.039216%,9.803922%,7.058824%);fill-opacity:1;" d="M 513.742188 363.574219 C 512.75 363.292969 512.105469 363.125 512.105469 363.125 C 512.105469 363.125 512.878906 363.296875 513.960938 363.425781 C 513.890625 363.472656 513.816406 363.523438 513.742188 363.574219 M 534.371094 363.308594 C 534.363281 363.300781 534.359375 363.292969 534.351562 363.285156 C 534.707031 363.214844 534.953125 363.15625 535.046875 363.136719 C 534.957031 363.15625 534.71875 363.21875 534.371094 363.308594 M 535.046875 363.136719 C 535.074219 363.128906 535.085938 363.125 535.085938 363.125 C 535.085938 363.125 535.074219 363.128906 535.046875 363.136719 "/>
<path style=" stroke:none;fill-rule:nonzero;fill:rgb(75.294118%,55.686275%,38.431373%);fill-opacity:1;" d="M 528.871094 364.550781 C 527.085938 364.550781 525.160156 364.15625 523.601562 364.15625 C 521.953125 364.15625 520.101562 364.445312 518.316406 364.445312 C 517.332031 364.445312 516.359375 364.359375 515.449219 364.082031 C 514.824219 363.886719 514.238281 363.710938 513.742188 363.574219 C 513.816406 363.523438 513.890625 363.472656 513.960938 363.425781 C 514.660156 363.511719 515.476562 363.582031 516.292969 363.582031 C 518.375 363.582031 520.21875 362.390625 523.601562 362.390625 C 526.976562 362.390625 528.648438 363.667969 530.792969 363.667969 C 532.164062 363.667969 533.539062 363.449219 534.351562 363.285156 C 534.359375 363.292969 534.363281 363.300781 534.371094 363.308594 C 533.632812 363.5 532.410156 363.832031 531.054688 364.261719 C 530.378906 364.476562 529.636719 364.550781 528.871094 364.550781 "/>
<path style=" stroke:none;fill-rule:nonzero;fill:rgb(13.72549%,12.156863%,12.54902%);fill-opacity:1;" d="M 499.640625 322.800781 C 499.957031 325.222656 502.183594 326.941406 504.609375 326.625 C 507.035156 326.3125 508.753906 324.09375 508.433594 321.65625 C 508.117188 319.230469 505.890625 317.519531 503.464844 317.835938 C 501.039062 318.148438 499.328125 320.375 499.640625 322.800781 "/>
<path style=" stroke:none;fill-rule:nonzero;fill:rgb(13.72549%,12.156863%,12.54902%);fill-opacity:1;" d="M 547.046875 322.933594 C 546.609375 325.347656 544.296875 326.9375 541.894531 326.492188 C 539.480469 326.042969 537.890625 323.738281 538.332031 321.324219 C 538.773438 318.917969 541.085938 317.328125 543.5 317.773438 C 545.902344 318.210938 547.5 320.53125 547.046875 322.933594 "/>
<path style=" stroke:none;fill-rule:nonzero;fill:rgb(20.784314%,12.156863%,9.019608%);fill-opacity:1;" d="M 497.683594 303.480469 C 501.503906 302.398438 506.15625 302.753906 506.570312 303.15625 C 506.976562 303.554688 507.976562 306.246094 507.238281 306.578125 C 506.496094 306.914062 504.328125 305.253906 498.722656 306.273438 C 494.96875 306.957031 490.433594 310.179688 489.039062 311.617188 C 490.140625 308.605469 492.832031 304.851562 497.683594 303.480469 "/>
<path style=" stroke:none;fill-rule:nonzero;fill:rgb(20.784314%,12.156863%,9.019608%);fill-opacity:1;" d="M 547.753906 303.480469 C 543.929688 302.398438 539.277344 302.753906 538.867188 303.15625 C 538.453125 303.554688 537.453125 306.246094 538.199219 306.578125 C 538.941406 306.914062 541.105469 305.253906 546.722656 306.273438 C 550.460938 306.957031 555 310.179688 556.394531 311.617188 C 555.292969 308.605469 552.609375 304.851562 547.753906 303.480469 "/>
<path style=" stroke:none;fill-rule:nonzero;fill:rgb(100%,100%,100%);fill-opacity:1;" d="M 507.976562 319.863281 C 507.976562 320.964844 507.085938 321.855469 505.976562 321.855469 C 504.882812 321.855469 503.988281 320.964844 503.988281 319.863281 C 503.988281 318.761719 504.882812 317.867188 505.976562 317.867188 C 507.085938 317.867188 507.976562 318.761719 507.976562 319.863281 "/>
<path style=" stroke:none;fill-rule:nonzero;fill:rgb(100%,100%,100%);fill-opacity:1;" d="M 546.1875 319.304688 C 546.1875 320.40625 545.300781 321.300781 544.191406 321.300781 C 543.09375 321.300781 542.203125 320.40625 542.203125 319.304688 C 542.203125 318.203125 543.09375 317.304688 544.191406 317.304688 C 545.300781 317.304688 546.1875 318.203125 546.1875 319.304688 "/>
<path style=" stroke:none;fill-rule:nonzero;fill:rgb(0%,76.078431%,79.607843%);fill-opacity:1;" d="M 332.222656 607.390625 L 313.171875 616.621094 C 311.304688 617.523438 310.03125 618.964844 309.34375 620.941406 C 308.660156 622.917969 308.769531 624.839844 309.671875 626.707031 L 341.179688 691.714844 C 342.082031 693.578125 343.519531 694.855469 345.5 695.539062 C 347.476562 696.222656 349.398438 696.117188 351.265625 695.214844 L 371.914062 685.207031 C 374.976562 683.722656 377.914062 681.972656 380.589844 679.6875 C 383.332031 677.539062 385.882812 674.65625 388.3125 671.179688 C 390.738281 667.699219 392.507812 663.878906 393.617188 659.722656 C 394.59375 655.628906 394.855469 650.734375 394.0625 645.03125 C 393.339844 639.460938 391.425781 633.480469 388.324219 627.082031 C 385.097656 620.425781 380.992188 615.011719 376.210938 610.914062 C 371.359375 607.011719 366.359375 604.5 361.273438 603.511719 C 356.1875 602.523438 351.15625 602.328125 346.25 603.0625 C 341.339844 603.792969 336.753906 605.195312 332.222656 607.390625 Z M 363.984375 673.261719 L 351.726562 679.199219 L 326.03125 626.179688 L 338.6875 620.046875 C 354.675781 612.300781 366.800781 616.953125 375.0625 634.003906 C 383.972656 652.386719 380.238281 665.382812 363.984375 673.261719 Z M 363.984375 673.261719 "/>
<path style=" stroke:none;fill-rule:nonzero;fill:rgb(0%,76.078431%,79.607843%);fill-opacity:1;" d="M 446.910156 649.207031 C 442.621094 650.503906 439.160156 651.363281 436.675781 651.765625 C 430.242188 652.808594 425.597656 652.808594 422.828125 651.460938 C 419.9375 650.277344 417.757812 647.933594 416.265625 644.273438 L 445.929688 639.46875 C 448.5625 639.042969 450.757812 637.785156 452.5 635.558594 C 454.089844 633.347656 454.730469 630.847656 454.257812 627.921875 C 452.984375 620.03125 449.429688 613.859375 443.804688 609.671875 C 438.179688 605.484375 430.90625 604.113281 422.140625 605.53125 C 413.367188 606.957031 407.121094 610.964844 403.511719 617.394531 C 399.757812 623.855469 398.753906 631.515625 400.171875 640.28125 C 401.617188 649.195312 405.28125 656.101562 411.171875 660.992188 C 417.089844 666.035156 424.554688 667.671875 433.613281 666.207031 C 440.339844 665.117188 445.964844 663.757812 450.476562 661.976562 C 451.890625 661.449219 452.941406 660.527344 453.777344 659.191406 C 454.464844 657.882812 454.808594 656.324219 454.550781 654.722656 C 454.269531 652.964844 453.273438 651.476562 451.894531 650.347656 C 450.390625 649.394531 448.664062 648.925781 446.910156 649.207031 Z M 438.664062 627 L 414.109375 630.976562 C 414.199219 627.816406 415.132812 625.265625 416.652344 623.515625 C 418.171875 621.773438 420.65625 620.472656 424.3125 619.878906 C 431.765625 618.671875 436.5 621.050781 438.664062 627 Z M 438.664062 627 "/>
<path style=" stroke:none;fill-rule:nonzero;fill:rgb(0%,76.078431%,79.607843%);fill-opacity:1;" d="M 501.214844 646.753906 C 504.871094 647.332031 508.023438 646.328125 510.726562 643.457031 L 531.882812 619.523438 L 525.199219 661.925781 C 524.878906 663.972656 525.328125 665.84375 526.5625 667.535156 C 527.792969 669.226562 529.433594 670.234375 531.480469 670.558594 C 533.527344 670.878906 535.398438 670.429688 537.09375 669.195312 C 538.785156 667.964844 539.792969 666.324219 540.117188 664.277344 L 551.527344 591.894531 C 551.804688 590.144531 551.304688 588.5625 550.34375 587.0625 C 549.210938 585.6875 547.863281 584.726562 546.109375 584.449219 C 543.769531 584.078125 541.851562 584.824219 540.261719 586.375 L 504.121094 628.332031 L 482.640625 577.289062 C 481.457031 575.304688 479.859375 574.003906 477.671875 573.660156 C 475.914062 573.382812 474.191406 573.859375 472.832031 574.84375 C 471.3125 575.953125 470.496094 577.324219 470.222656 579.078125 L 458.808594 651.460938 C 458.484375 653.507812 458.9375 655.375 460.171875 657.066406 C 461.402344 658.757812 463.042969 659.769531 465.089844 660.089844 C 467.136719 660.414062 469.007812 659.960938 470.699219 658.730469 C 472.390625 657.496094 473.402344 655.859375 473.722656 653.808594 L 480.40625 611.40625 L 493.175781 640.695312 C 494.714844 644.234375 497.414062 646.15625 501.214844 646.753906 Z M 501.214844 646.753906 "/>
<path style=" stroke:none;fill-rule:nonzero;fill:rgb(0%,76.078431%,79.607843%);fill-opacity:1;" d="M 560.941406 686.777344 L 561.992188 687.324219 C 564.617188 688.6875 567.449219 689.660156 570.6875 690.175781 C 573.722656 690.75 577.230469 690.742188 581.148438 690.273438 C 584.863281 689.871094 588.597656 688.140625 592.484375 685.15625 C 596.242188 682.101562 599.550781 677.984375 602.285156 672.734375 C 606.792969 664.0625 607.445312 656.0625 604.320312 648.597656 C 601.191406 641.132812 596.511719 635.699219 590.078125 632.351562 C 583.375 628.867188 576.105469 628.089844 568.199219 629.820312 C 560.292969 631.546875 554.117188 636.683594 549.609375 645.351562 C 547.355469 649.683594 545.902344 653.765625 545.4375 657.863281 C 544.847656 661.894531 545.054688 665.335938 545.871094 668.265625 C 546.617188 671.324219 547.898438 673.992188 549.582031 676.53125 C 551.265625 679.074219 553.148438 681.226562 554.976562 682.84375 C 556.804688 684.460938 558.839844 685.683594 560.941406 686.777344 Z M 568.15625 674.175781 C 559.488281 669.671875 557.8125 662.625 563.003906 652.644531 C 565.597656 647.652344 568.625 644.726562 572.414062 643.859375 C 576.199219 642.988281 579.835938 643.375 583.253906 645.15625 C 586.667969 646.929688 588.941406 649.613281 590.40625 653.210938 C 591.742188 656.742188 591.214844 660.96875 588.613281 665.960938 C 583.425781 675.941406 576.5625 678.550781 568.15625 674.175781 Z M 568.15625 674.175781 "/>
</g>
</svg>
